<svg xmlns="http://www.w3.org/2000/svg" viewBox="0 0 900 900" role="img" aria-label="Amber Vector Field">
  <defs>
    <radialGradient id="bg" cx="0.41" cy="0.34" r=".86">
      <stop stop-color="#1e1408"/>
      <stop offset=".45" stop-color="#070503"/>
      <stop offset="1" stop-color="#000"/>
    </radialGradient>
    <linearGradient id="slab" x1="0" y1="0" x2="1" y2="1">
      <stop stop-color="#fff0bf" stop-opacity=".20"/>
      <stop offset=".42" stop-color="#1e1408" stop-opacity=".58"/>
      <stop offset="1" stop-color="#ffb02e" stop-opacity=".18"/>
    </linearGradient>
    <filter id="soft"><feGaussianBlur stdDeviation="18"/></filter>
    <filter id="glow"><feGaussianBlur stdDeviation="3.5"/><feColorMatrix type="matrix" values="1 0 0 0 0 0 0.72 0 0 0 0 0 0.58 0 0 0 0 0 .9 0"/></filter>
    <pattern id="grain" width="58" height="58" patternUnits="userSpaceOnUse">
      <path d="M0 17h58M11 0v58M0 43h58M37 0v58" stroke="#fff0bf" stroke-opacity=".035"/>
      <circle cx="7" cy="9" r="1" fill="#fff0bf" opacity=".09"/>
      <circle cx="43" cy="31" r="1.2" fill="#ffb02e" opacity=".08"/>
    </pattern>
  </defs>
  <rect width="900" height="900" fill="url(#bg)"/>
  <rect width="900" height="900" fill="url(#grain)"/>
  <ellipse cx="396.5" cy="543.6" rx="330.8" ry="208.0" fill="#ffb02e" opacity=".13" filter="url(#soft)"/>
  <g opacity=".9"><path d="M322.0 664.5V746.5" stroke="#ffb02e" stroke-width="1.9" opacity="0.15"/>
<path d="M644.0 100.9V197.6" stroke="#fff0bf" stroke-width="1.0" opacity="0.23"/>
<path d="M352.0 199.9V245.7" stroke="#fff0bf" stroke-width="2.0" opacity="0.16"/>
<path d="M810.4 623.3V777.5" stroke="#fff0bf" stroke-width="2.2" opacity="0.15"/>
<path d="M795.3 633.3V794.0" stroke="#fff0bf" stroke-width="2.2" opacity="0.32"/>
<path d="M620.2 630.3V755.7" stroke="#ffb02e" stroke-width="1.9" opacity="0.18"/>
<path d="M610.6 426.1V608.6" stroke="#fff0bf" stroke-width="1.2" opacity="0.31"/>
<path d="M691.6 210.1V286.8" stroke="#fff0bf" stroke-width="0.9" opacity="0.09"/>
<path d="M779.9 452.3V498.4" stroke="#fff0bf" stroke-width="2.1" opacity="0.17"/>
<path d="M361.4 574.5V669.0" stroke="#fff0bf" stroke-width="2.3" opacity="0.27"/>
<path d="M596.6 338.4V513.2" stroke="#fff0bf" stroke-width="1.7" opacity="0.33"/>
<path d="M252.1 686.7V786.6" stroke="#fff0bf" stroke-width="1.8" opacity="0.20"/>
<path d="M137.2 60.4V138.1" stroke="#fff0bf" stroke-width="1.3" opacity="0.20"/>
<path d="M163.7 492.4V647.9" stroke="#fff0bf" stroke-width="1.7" opacity="0.24"/>
<path d="M112.0 528.7V573.3" stroke="#fff0bf" stroke-width="1.5" opacity="0.14"/>
<path d="M713.4 686.7V757.5" stroke="#fff0bf" stroke-width="1.9" opacity="0.29"/>
<path d="M686.2 348.3V481.2" stroke="#fff0bf" stroke-width="1.7" opacity="0.26"/>
<path d="M268.6 680.6V737.1" stroke="#fff0bf" stroke-width="1.4" opacity="0.12"/>
<path d="M225.3 204.4V309.3" stroke="#fff0bf" stroke-width="0.9" opacity="0.09"/>
<path d="M128.0 544.6V658.4" stroke="#ffb02e" stroke-width="2.2" opacity="0.31"/>
<path d="M300.3 716.9V842.9" stroke="#fff0bf" stroke-width="1.2" opacity="0.27"/>
<path d="M503.8 167.8V344.6" stroke="#fff0bf" stroke-width="0.8" opacity="0.12"/>
<path d="M201.3 313.8V436.0" stroke="#fff0bf" stroke-width="0.9" opacity="0.33"/>
<path d="M507.0 714.9V851.6" stroke="#fff0bf" stroke-width="2.3" opacity="0.10"/>
<path d="M254.2 533.4V683.0" stroke="#ffb02e" stroke-width="2.3" opacity="0.26"/>
<path d="M184.0 449.4V566.2" stroke="#fff0bf" stroke-width="1.9" opacity="0.27"/>
<path d="M750.9 360.9V453.5" stroke="#fff0bf" stroke-width="1.0" opacity="0.29"/>
<path d="M676.4 491.1V594.2" stroke="#fff0bf" stroke-width="2.3" opacity="0.15"/>
<path d="M121.8 691.4V801.8" stroke="#ffb02e" stroke-width="0.8" opacity="0.25"/>
<path d="M758.2 651.2V709.8" stroke="#fff0bf" stroke-width="2.1" opacity="0.12"/>
<path d="M713.1 183.0V255.1" stroke="#fff0bf" stroke-width="2.2" opacity="0.22"/>
<path d="M780.1 540.1V696.6" stroke="#ffb02e" stroke-width="1.6" opacity="0.32"/>
<path d="M506.3 696.6V777.8" stroke="#fff0bf" stroke-width="2.1" opacity="0.10"/>
<path d="M444.1 650.4V793.3" stroke="#ffb02e" stroke-width="1.9" opacity="0.14"/>
<path d="M483.0 366.8V498.5" stroke="#fff0bf" stroke-width="1.3" opacity="0.27"/>
<path d="M235.1 290.4V452.7" stroke="#fff0bf" stroke-width="0.9" opacity="0.15"/>
<path d="M504.7 44.5V95.0" stroke="#fff0bf" stroke-width="1.5" opacity="0.29"/>
<path d="M467.5 154.1V263.3" stroke="#fff0bf" stroke-width="1.6" opacity="0.21"/></g>
  <g transform="rotate(0.80 450 450)">
    <polygon points="439.3,274.9 581.7,347.2 635.4,505.5 512.9,613.5 362.6,620.0 270.1,499.4 262.3,319.6" fill="url(#slab)" stroke="#fff0bf" stroke-opacity=".32" stroke-width="1.2"/>
    <ellipse cx="450" cy="450" rx="207.9" ry="97.8" transform="rotate(19.4 450 450)" fill="none" stroke="#fff0bf" stroke-width="1.3" opacity="0.26"/>
<ellipse cx="450" cy="450" rx="303.5" ry="143.1" transform="rotate(-28.4 450 450)" fill="none" stroke="#ffb02e" stroke-width="1.3" opacity="0.31"/>
<ellipse cx="450" cy="450" rx="182.7" ry="64.2" transform="rotate(-22.9 450 450)" fill="none" stroke="#fff0bf" stroke-width="3.1" opacity="0.37"/>
<ellipse cx="450" cy="450" rx="188.1" ry="123.6" transform="rotate(-8.4 450 450)" fill="none" stroke="#ffb02e" stroke-width="1.2" opacity="0.20"/>
<ellipse cx="450" cy="450" rx="196.8" ry="131.5" transform="rotate(26.3 450 450)" fill="none" stroke="#fff0bf" stroke-width="1.4" opacity="0.32"/>
    <polygon points="360.0,665.2 376.6,676.9 367.5,692.6 344.5,703.6 348.3,678.5" fill="#ffb02e" opacity="0.16"/>
<polygon points="258.5,327.3 281.7,342.1 276.9,375.0 247.8,364.4 231.7,341.0" fill="#fff0bf" opacity="0.11"/>
<polygon points="573.3,714.2 616.9,790.9 546.2,781.3" fill="#fff0bf" opacity="0.25"/>
<polygon points="508.1,593.6 551.2,662.9 452.5,670.1" fill="#ffb02e" opacity="0.24"/>
<polygon points="564.3,501.7 591.0,519.1 577.7,546.1 547.4,551.2 547.4,522.3" fill="#fff0bf" opacity="0.15"/>
<polygon points="681.0,569.7 731.5,662.1 616.9,669.9" fill="#fff0bf" opacity="0.25"/>
<polygon points="450.6,726.5 470.3,758.8 429.1,759.8" fill="#ffb02e" opacity="0.11"/>
<polygon points="269.8,205.1 296.1,238.1 269.8,267.4 251.1,238.1" fill="#fff0bf" opacity="0.08"/>
<polygon points="562.8,599.6 598.4,649.1 562.8,707.9 536.3,649.1" fill="#fff0bf" opacity="0.19"/>
<polygon points="255.4,413.7 334.2,482.6 255.4,517.3 215.3,482.6" fill="#ffb02e" opacity="0.10"/>
<polygon points="423.3,566.2 462.0,618.1 396.2,611.4" fill="#fff0bf" opacity="0.23"/>
<polygon points="462.6,456.4 515.2,467.0 509.9,524.7 462.6,526.0 409.8,527.9 415.2,470.0" fill="#fff0bf" opacity="0.10"/>
<polygon points="695.0,667.4 730.7,671.0 714.7,703.0 695.0,730.8 666.1,708.3 679.9,682.9" fill="#ffb02e" opacity="0.18"/>
<polygon points="677.0,614.5 706.5,634.0 705.0,667.2 677.0,685.7 664.3,658.4 647.5,634.0" fill="#fff0bf" opacity="0.23"/>
<polygon points="474.1,218.5 528.0,209.1 519.7,266.5 474.1,262.1 422.4,270.1 436.1,218.3" fill="#fff0bf" opacity="0.21"/>
<polygon points="765.8,268.0 781.4,288.6 765.8,334.4 738.2,288.6" fill="#ffb02e" opacity="0.17"/>
<polygon points="642.6,402.1 664.5,476.1 605.8,484.7" fill="#fff0bf" opacity="0.18"/>
<polygon points="520.0,198.5 552.5,254.2 485.7,255.3" fill="#fff0bf" opacity="0.15"/>
    <path d="M571.8 610.4 L537.9 628.8 L540.9 658.7 L570.3 632.3 L614.7 643.9 L603.6 693.0" stroke="#ffb02e" stroke-width="2.1" stroke-linecap="round" fill="none" opacity="0.44" filter="url(#glow)"/>
<path d="M516.5 475.7 L487.7 479.9 L523.5 485.3 L536.3 501.9 L593.8 469.0 L634.2 483.2" stroke="#ffb02e" stroke-width="2.3" stroke-linecap="round" fill="none" opacity="0.59" filter="url(#glow)"/>
<path d="M408.4 343.3 L407.1 366.9 L437.7 327.9 L486.9 377.9 L501.6 357.8 L508.1 346.0" stroke="#ffb02e" stroke-width="3.2" stroke-linecap="round" fill="none" opacity="0.48" filter="url(#glow)"/>
<path d="M527.1 679.9 L570.7 683.9 L554.8 647.3 L525.5 641.0 L559.3 644.0 L582.4 673.9" stroke="#ffb02e" stroke-width="3.8" stroke-linecap="round" fill="none" opacity="0.77" filter="url(#glow)"/>
<path d="M473.4 665.8 L508.6 643.7 L483.7 605.3 L500.7 633.5 L552.0 662.2 L572.3 639.6" stroke="#ffb02e" stroke-width="3.8" stroke-linecap="round" fill="none" opacity="0.65" filter="url(#glow)"/>
    <circle cx="453.8" cy="459.3" r="41.0" fill="#ffb02e" opacity=".48" filter="url(#glow)"/>
    <path d="M281.3 731.1 C398.6 547.9 588.8 747.0 731.5 710.2" fill="none" stroke="#fff0bf" stroke-width="1.6" stroke-opacity=".22"/>
  </g>
  <g opacity=".42">
    <path d="M80 130H270M630 760H820M120 790H330M600 118H790" stroke="#fff0bf" stroke-width="1"/>
    <path d="M90 130v75M820 690v70M270 130l28 28M600 118l-22 30" stroke="#ffb02e" stroke-width="1.4" stroke-opacity=".65"/>
  </g>
</svg>
