<svg xmlns="http://www.w3.org/2000/svg" viewBox="0 0 900 900" role="img" aria-label="Magenta Weather System">
  <defs>
    <radialGradient id="bg" cx="0.68" cy="0.27" r=".86">
      <stop stop-color="#211020"/>
      <stop offset=".45" stop-color="#07040a"/>
      <stop offset="1" stop-color="#000"/>
    </radialGradient>
    <linearGradient id="slab" x1="0" y1="0" x2="1" y2="1">
      <stop stop-color="#88e7ff" stop-opacity=".20"/>
      <stop offset=".42" stop-color="#211020" stop-opacity=".58"/>
      <stop offset="1" stop-color="#ff45ad" stop-opacity=".18"/>
    </linearGradient>
    <filter id="soft"><feGaussianBlur stdDeviation="18"/></filter>
    <filter id="glow"><feGaussianBlur stdDeviation="3.5"/><feColorMatrix type="matrix" values="1 0 0 0 0 0 0.72 0 0 0 0 0 0.58 0 0 0 0 0 .9 0"/></filter>
    <pattern id="grain" width="58" height="58" patternUnits="userSpaceOnUse">
      <path d="M0 17h58M11 0v58M0 43h58M37 0v58" stroke="#88e7ff" stroke-opacity=".035"/>
      <circle cx="7" cy="9" r="1" fill="#88e7ff" opacity=".09"/>
      <circle cx="43" cy="31" r="1.2" fill="#ff45ad" opacity=".08"/>
    </pattern>
  </defs>
  <rect width="900" height="900" fill="url(#bg)"/>
  <rect width="900" height="900" fill="url(#grain)"/>
  <ellipse cx="520.0" cy="557.4" rx="272.5" ry="289.2" fill="#ff45ad" opacity=".13" filter="url(#soft)"/>
  <g opacity=".9"><path d="M656.8 524.5V596.4" stroke="#ff45ad" stroke-width="1.1" opacity="0.21"/>
<path d="M145.1 178.7V286.5" stroke="#88e7ff" stroke-width="2.2" opacity="0.22"/>
<path d="M304.1 483.5V595.9" stroke="#88e7ff" stroke-width="1.2" opacity="0.23"/>
<path d="M549.3 388.1V449.6" stroke="#ff45ad" stroke-width="0.9" opacity="0.21"/>
<path d="M400.1 505.7V691.8" stroke="#ff45ad" stroke-width="1.7" opacity="0.19"/>
<path d="M502.0 526.7V669.7" stroke="#88e7ff" stroke-width="0.7" opacity="0.19"/>
<path d="M214.3 720.3V814.3" stroke="#88e7ff" stroke-width="1.0" opacity="0.19"/>
<path d="M763.5 118.8V284.3" stroke="#88e7ff" stroke-width="0.9" opacity="0.29"/>
<path d="M265.0 721.6V896.0" stroke="#ff45ad" stroke-width="1.8" opacity="0.14"/>
<path d="M647.5 693.6V762.1" stroke="#88e7ff" stroke-width="1.5" opacity="0.29"/>
<path d="M618.3 345.3V452.4" stroke="#88e7ff" stroke-width="2.1" opacity="0.19"/>
<path d="M695.5 662.0V828.4" stroke="#ff45ad" stroke-width="1.7" opacity="0.11"/>
<path d="M211.6 561.5V716.4" stroke="#88e7ff" stroke-width="1.6" opacity="0.26"/>
<path d="M388.5 80.2V185.6" stroke="#88e7ff" stroke-width="1.8" opacity="0.11"/>
<path d="M492.2 144.3V294.1" stroke="#88e7ff" stroke-width="2.5" opacity="0.25"/>
<path d="M170.5 732.8V805.0" stroke="#88e7ff" stroke-width="1.7" opacity="0.26"/>
<path d="M86.9 486.4V566.9" stroke="#88e7ff" stroke-width="2.5" opacity="0.30"/>
<path d="M605.7 142.4V185.4" stroke="#ff45ad" stroke-width="1.7" opacity="0.25"/>
<path d="M529.7 490.7V643.1" stroke="#ff45ad" stroke-width="1.2" opacity="0.17"/>
<path d="M438.0 632.2V709.6" stroke="#88e7ff" stroke-width="1.1" opacity="0.12"/>
<path d="M168.2 342.8V406.0" stroke="#88e7ff" stroke-width="1.5" opacity="0.31"/>
<path d="M256.4 513.3V636.3" stroke="#ff45ad" stroke-width="1.9" opacity="0.20"/>
<path d="M508.6 218.0V344.8" stroke="#88e7ff" stroke-width="1.1" opacity="0.32"/>
<path d="M555.8 218.7V330.9" stroke="#88e7ff" stroke-width="0.9" opacity="0.34"/>
<path d="M316.1 399.7V569.0" stroke="#88e7ff" stroke-width="2.4" opacity="0.34"/>
<path d="M819.5 272.1V435.4" stroke="#88e7ff" stroke-width="0.9" opacity="0.21"/>
<path d="M313.6 84.2V182.5" stroke="#88e7ff" stroke-width="1.6" opacity="0.16"/>
<path d="M448.0 317.7V447.3" stroke="#88e7ff" stroke-width="1.8" opacity="0.29"/>
<path d="M378.9 201.4V347.5" stroke="#88e7ff" stroke-width="0.7" opacity="0.09"/>
<path d="M319.0 78.8V246.8" stroke="#88e7ff" stroke-width="2.4" opacity="0.17"/>
<path d="M808.8 663.3V721.3" stroke="#88e7ff" stroke-width="1.0" opacity="0.33"/>
<path d="M735.5 120.9V164.9" stroke="#88e7ff" stroke-width="0.8" opacity="0.29"/>
<path d="M223.3 680.9V828.4" stroke="#88e7ff" stroke-width="2.4" opacity="0.29"/>
<path d="M239.3 364.4V416.2" stroke="#88e7ff" stroke-width="0.9" opacity="0.12"/>
<path d="M684.7 559.3V608.3" stroke="#88e7ff" stroke-width="1.8" opacity="0.17"/>
<path d="M82.4 354.1V474.4" stroke="#ff45ad" stroke-width="2.2" opacity="0.33"/>
<path d="M228.7 723.9V812.7" stroke="#ff45ad" stroke-width="1.7" opacity="0.14"/>
<path d="M717.1 225.8V282.6" stroke="#88e7ff" stroke-width="2.4" opacity="0.14"/></g>
  <g transform="rotate(-5.19 450 450)">
    <polygon points="450.0,232.2 566.3,269.1 644.7,361.1 667.0,481.2 645.7,619.5 511.9,660.6 385.6,669.4 285.9,592.2 237.2,480.6 217.4,343.8 328.6,261.0" fill="url(#slab)" stroke="#88e7ff" stroke-opacity=".3" stroke-width="1.2"/>
    <ellipse cx="450" cy="450" rx="308.8" ry="86.1" transform="rotate(34.1 450 450)" fill="none" stroke="#88e7ff" stroke-width="3.3" opacity="0.31"/>
<ellipse cx="450" cy="450" rx="264.4" ry="141.6" transform="rotate(-39.2 450 450)" fill="none" stroke="#ff45ad" stroke-width="1.3" opacity="0.38"/>
<ellipse cx="450" cy="450" rx="278.2" ry="100.0" transform="rotate(-27.9 450 450)" fill="none" stroke="#88e7ff" stroke-width="1.8" opacity="0.33"/>
<ellipse cx="450" cy="450" rx="216.5" ry="112.0" transform="rotate(-25.7 450 450)" fill="none" stroke="#ff45ad" stroke-width="2.4" opacity="0.36"/>
<ellipse cx="450" cy="450" rx="250.9" ry="85.7" transform="rotate(-24.4 450 450)" fill="none" stroke="#88e7ff" stroke-width="3.1" opacity="0.28"/>
    <polygon points="612.9,369.9 648.4,424.2 643.3,477.7 580.6,480.2 574.3,423.3" fill="#ff45ad" opacity="0.15"/>
<polygon points="305.4,90.1 333.4,137.8 305.4,169.9 280.9,137.8" fill="#88e7ff" opacity="0.20"/>
<polygon points="520.5,150.0 580.3,199.7 520.5,255.5 483.8,199.7" fill="#88e7ff" opacity="0.16"/>
<polygon points="423.7,327.9 448.5,352.6 423.7,395.9 406.9,352.6" fill="#ff45ad" opacity="0.14"/>
<polygon points="485.2,731.1 526.4,742.7 526.1,790.1 485.2,805.8 464.5,778.5 461.2,752.6" fill="#88e7ff" opacity="0.20"/>
<polygon points="340.2,558.4 407.0,592.0 340.2,658.6 258.2,592.0" fill="#88e7ff" opacity="0.10"/>
<polygon points="357.2,192.0 384.1,249.5 435.0,310.0 357.2,326.8 293.4,301.9 317.7,242.2" fill="#ff45ad" opacity="0.24"/>
<polygon points="763.6,363.7 822.0,357.9 793.9,409.1 763.6,439.8 722.7,415.2 722.0,367.6" fill="#88e7ff" opacity="0.15"/>
<polygon points="587.3,358.0 615.7,397.4 555.2,399.5" fill="#88e7ff" opacity="0.19"/>
<polygon points="646.1,481.6 676.0,478.3 660.7,504.0 646.1,520.1 612.9,514.8 616.3,478.3" fill="#ff45ad" opacity="0.22"/>
<polygon points="218.0,421.4 240.8,484.0 162.6,502.9" fill="#88e7ff" opacity="0.15"/>
<polygon points="393.1,103.3 410.3,135.8 383.1,131.6" fill="#88e7ff" opacity="0.25"/>
<polygon points="705.1,532.2 735.5,558.6 705.1,594.6 658.3,558.6" fill="#ff45ad" opacity="0.24"/>
<polygon points="413.8,258.3 456.6,307.4 450.1,353.1 413.8,410.3 380.9,351.1 367.5,305.4" fill="#88e7ff" opacity="0.19"/>
<polygon points="315.2,595.9 356.7,626.5 315.2,698.9 242.5,626.5" fill="#88e7ff" opacity="0.08"/>
<polygon points="347.0,107.2 425.6,173.3 347.0,229.0 267.8,173.3" fill="#ff45ad" opacity="0.14"/>
<polygon points="334.4,563.3 365.2,580.8 367.4,636.3 316.1,616.0 312.0,583.5" fill="#88e7ff" opacity="0.20"/>
<polygon points="761.5,379.2 802.5,397.9 788.6,448.4 737.9,443.7 734.5,402.4" fill="#88e7ff" opacity="0.22"/>
    <path d="M524.5 377.1 L520.3 423.9 L546.4 408.7 L563.5 408.6 L539.1 457.1 L506.6 447.2" stroke="#ff45ad" stroke-width="1.2" stroke-linecap="round" fill="none" opacity="0.52" filter="url(#glow)"/>
<path d="M397.3 531.6 L378.2 578.7 L349.8 555.3 L344.2 596.4 L333.5 572.4 L343.4 594.4" stroke="#ff45ad" stroke-width="2.4" stroke-linecap="round" fill="none" opacity="0.69" filter="url(#glow)"/>
<path d="M396.5 286.9 L360.0 268.3 L351.4 247.4 L348.3 206.5 L384.5 199.0 L437.0 215.3" stroke="#ff45ad" stroke-width="1.6" stroke-linecap="round" fill="none" opacity="0.77" filter="url(#glow)"/>
<path d="M288.6 342.3 L276.7 340.2 L231.7 336.7 L202.2 325.1 L258.0 350.9 L285.4 357.1" stroke="#ff45ad" stroke-width="1.6" stroke-linecap="round" fill="none" opacity="0.73" filter="url(#glow)"/>
<path d="M278.9 569.2 L233.2 608.2 L258.1 583.3 L307.7 628.3 L364.2 667.9 L406.1 702.7" stroke="#ff45ad" stroke-width="3.7" stroke-linecap="round" fill="none" opacity="0.67" filter="url(#glow)"/>
    <circle cx="402.9" cy="460.0" r="19.2" fill="#ff45ad" opacity=".48" filter="url(#glow)"/>
    <path d="M244.5 727.6 C389.3 562.9 590.6 760.9 753.9 695.3" fill="none" stroke="#88e7ff" stroke-width="1.6" stroke-opacity=".22"/>
  </g>
  <g opacity=".42">
    <path d="M80 130H270M630 760H820M120 790H330M600 118H790" stroke="#88e7ff" stroke-width="1"/>
    <path d="M90 130v75M820 690v70M270 130l28 28M600 118l-22 30" stroke="#ff45ad" stroke-width="1.4" stroke-opacity=".65"/>
  </g>
</svg>
